<svg width="1920" height="120" viewBox="0 0 1920 120" fill="none" xmlns="http://www.w3.org/2000/svg">
<g clip-path="url(#clip0_38_2)">
<path d="M43.1797 41.3672H50.6094V50.9297H73.3906V41.3672H80.8438V78H73.3906V57.2812H50.6094V78H43.1797V41.3672ZM89.0938 59.5781C89.0938 56.8125 89.6016 54.2812 90.6172 51.9844C91.6328 49.6875 93.0547 47.7188 94.8828 46.0781C96.7266 44.4219 98.9297 43.1406 101.492 42.2344C104.07 41.3281 106.922 40.875 110.047 40.875C113.156 40.875 116 41.3281 118.578 42.2344C121.156 43.1406 123.359 44.4219 125.188 46.0781C127.031 47.7188 128.461 49.6875 129.477 51.9844C130.492 54.2812 131 56.8125 131 59.5781C131 62.3594 130.492 64.9141 129.477 67.2422C128.461 69.5547 127.031 71.5469 125.188 73.2188C123.359 74.8906 121.156 76.1953 118.578 77.1328C116 78.0547 113.156 78.5156 110.047 78.5156C106.922 78.5156 104.07 78.0547 101.492 77.1328C98.9297 76.1953 96.7266 74.8906 94.8828 73.2188C93.0547 71.5469 91.6328 69.5547 90.6172 67.2422C89.6016 64.9141 89.0938 62.3594 89.0938 59.5781ZM96.5234 59.5781C96.5234 61.4688 96.8594 63.1719 97.5312 64.6875C98.2188 66.2031 99.1641 67.5 100.367 68.5781C101.586 69.6406 103.016 70.4609 104.656 71.0391C106.312 71.6172 108.109 71.9062 110.047 71.9062C111.984 71.9062 113.773 71.6172 115.414 71.0391C117.07 70.4609 118.5 69.6406 119.703 68.5781C120.906 67.5 121.852 66.2031 122.539 64.6875C123.227 63.1719 123.57 61.4688 123.57 59.5781C123.57 57.6875 123.227 55.9922 122.539 54.4922C121.852 52.9922 120.906 51.7266 119.703 50.6953C118.5 49.6484 117.07 48.8516 115.414 48.3047C113.773 47.7578 111.984 47.4844 110.047 47.4844C108.109 47.4844 106.312 47.7578 104.656 48.3047C103.016 48.8516 101.586 49.6484 100.367 50.6953C99.1641 51.7266 98.2188 52.9922 97.5312 54.4922C96.8594 55.9922 96.5234 57.6875 96.5234 59.5781ZM139.273 41.3672H146.703L160.016 54.7266L173.328 41.3672H180.758V78H173.328V51.6562L160.016 64.4766L146.703 51.6562V78H139.273V41.3672ZM191.188 41.3672H222.383V47.8828H198.617V55.1953H219.664V61.3125H198.617V71.5078H222.875V78H191.188V41.3672ZM244.836 59.4609C244.836 56.8516 245.328 54.4219 246.312 52.1719C247.297 49.9062 248.719 47.9453 250.578 46.2891C252.453 44.6172 254.734 43.3047 257.422 42.3516C260.125 41.3984 263.18 40.9219 266.586 40.9219C269.57 40.9219 272.305 41.2266 274.789 41.8359C277.289 42.4297 279.609 43.3438 281.75 44.5781L278.328 50.2031C277.688 49.7812 276.945 49.4062 276.102 49.0781C275.273 48.75 274.383 48.4766 273.43 48.2578C272.492 48.0234 271.516 47.8438 270.5 47.7188C269.5 47.5938 268.508 47.5312 267.523 47.5312C265.148 47.5312 263.031 47.8281 261.172 48.4219C259.312 49 257.742 49.8203 256.461 50.8828C255.195 51.9297 254.227 53.1875 253.555 54.6562C252.898 56.1094 252.57 57.7109 252.57 59.4609C252.57 61.2734 252.914 62.9375 253.602 64.4531C254.289 65.9688 255.281 67.2812 256.578 68.3906C257.891 69.4844 259.484 70.3438 261.359 70.9688C263.25 71.5781 265.383 71.8828 267.758 71.8828C268.836 71.8828 269.906 71.8047 270.969 71.6484C272.031 71.4922 273.055 71.2812 274.039 71.0156C275.039 70.7344 276 70.4062 276.922 70.0312C277.844 69.6406 278.703 69.2188 279.5 68.7656L282.922 74.3906C280.922 75.6719 278.609 76.6797 275.984 77.4141C273.359 78.1328 270.57 78.4922 267.617 78.4922C263.852 78.4922 260.547 78.0078 257.703 77.0391C254.859 76.0547 252.484 74.7109 250.578 73.0078C248.672 71.2891 247.234 69.2734 246.266 66.9609C245.312 64.6328 244.836 62.1328 244.836 59.4609ZM291.125 41.3672H298.555V71.4844H319.859V78H291.125V41.3672ZM327.078 41.3672H358.273V47.8828H334.508V55.1953H355.555V61.3125H334.508V71.5078H358.766V78H327.078V41.3672ZM379.508 41.3672H387.383L405.102 78H397.297L394.367 71.8359H372.969L370.133 78H362.305L379.508 41.3672ZM391.438 65.7188L383.516 49.0781L375.805 65.7188H391.438ZM410.75 41.3672H418.18L441.008 53.3203V41.3672H448.438V78H441.008V61.1953L418.18 49.3125V78H410.75V41.3672Z" fill="black"/>
<path d="M1493.18 41.3672H1500.61V50.9297H1523.39V41.3672H1530.84V78H1523.39V57.2812H1500.61V78H1493.18V41.3672ZM1539.09 59.5781C1539.09 56.8125 1539.6 54.2812 1540.62 51.9844C1541.63 49.6875 1543.05 47.7188 1544.88 46.0781C1546.73 44.4219 1548.93 43.1406 1551.49 42.2344C1554.07 41.3281 1556.92 40.875 1560.05 40.875C1563.16 40.875 1566 41.3281 1568.58 42.2344C1571.16 43.1406 1573.36 44.4219 1575.19 46.0781C1577.03 47.7188 1578.46 49.6875 1579.48 51.9844C1580.49 54.2812 1581 56.8125 1581 59.5781C1581 62.3594 1580.49 64.9141 1579.48 67.2422C1578.46 69.5547 1577.03 71.5469 1575.19 73.2188C1573.36 74.8906 1571.16 76.1953 1568.58 77.1328C1566 78.0547 1563.16 78.5156 1560.05 78.5156C1556.92 78.5156 1554.07 78.0547 1551.49 77.1328C1548.93 76.1953 1546.73 74.8906 1544.88 73.2188C1543.05 71.5469 1541.63 69.5547 1540.62 67.2422C1539.6 64.9141 1539.09 62.3594 1539.09 59.5781ZM1546.52 59.5781C1546.52 61.4688 1546.86 63.1719 1547.53 64.6875C1548.22 66.2031 1549.16 67.5 1550.37 68.5781C1551.59 69.6406 1553.02 70.4609 1554.66 71.0391C1556.31 71.6172 1558.11 71.9062 1560.05 71.9062C1561.98 71.9062 1563.77 71.6172 1565.41 71.0391C1567.07 70.4609 1568.5 69.6406 1569.7 68.5781C1570.91 67.5 1571.85 66.2031 1572.54 64.6875C1573.23 63.1719 1573.57 61.4688 1573.57 59.5781C1573.57 57.6875 1573.23 55.9922 1572.54 54.4922C1571.85 52.9922 1570.91 51.7266 1569.7 50.6953C1568.5 49.6484 1567.07 48.8516 1565.41 48.3047C1563.77 47.7578 1561.98 47.4844 1560.05 47.4844C1558.11 47.4844 1556.31 47.7578 1554.66 48.3047C1553.02 48.8516 1551.59 49.6484 1550.37 50.6953C1549.16 51.7266 1548.22 52.9922 1547.53 54.4922C1546.86 55.9922 1546.52 57.6875 1546.52 59.5781ZM1589.27 41.3672H1596.7L1610.02 54.7266L1623.33 41.3672H1630.76V78H1623.33V51.6562L1610.02 64.4766L1596.7 51.6562V78H1589.27V41.3672ZM1641.19 41.3672H1672.38V47.8828H1648.62V55.1953H1669.66V61.3125H1648.62V71.5078H1672.88V78H1641.19V41.3672ZM1694.84 59.4609C1694.84 56.8516 1695.33 54.4219 1696.31 52.1719C1697.3 49.9062 1698.72 47.9453 1700.58 46.2891C1702.45 44.6172 1704.73 43.3047 1707.42 42.3516C1710.12 41.3984 1713.18 40.9219 1716.59 40.9219C1719.57 40.9219 1722.3 41.2266 1724.79 41.8359C1727.29 42.4297 1729.61 43.3438 1731.75 44.5781L1728.33 50.2031C1727.69 49.7812 1726.95 49.4062 1726.1 49.0781C1725.27 48.75 1724.38 48.4766 1723.43 48.2578C1722.49 48.0234 1721.52 47.8438 1720.5 47.7188C1719.5 47.5938 1718.51 47.5312 1717.52 47.5312C1715.15 47.5312 1713.03 47.8281 1711.17 48.4219C1709.31 49 1707.74 49.8203 1706.46 50.8828C1705.2 51.9297 1704.23 53.1875 1703.55 54.6562C1702.9 56.1094 1702.57 57.7109 1702.57 59.4609C1702.57 61.2734 1702.91 62.9375 1703.6 64.4531C1704.29 65.9688 1705.28 67.2812 1706.58 68.3906C1707.89 69.4844 1709.48 70.3438 1711.36 70.9688C1713.25 71.5781 1715.38 71.8828 1717.76 71.8828C1718.84 71.8828 1719.91 71.8047 1720.97 71.6484C1722.03 71.4922 1723.05 71.2812 1724.04 71.0156C1725.04 70.7344 1726 70.4062 1726.92 70.0312C1727.84 69.6406 1728.7 69.2188 1729.5 68.7656L1732.92 74.3906C1730.92 75.6719 1728.61 76.6797 1725.98 77.4141C1723.36 78.1328 1720.57 78.4922 1717.62 78.4922C1713.85 78.4922 1710.55 78.0078 1707.7 77.0391C1704.86 76.0547 1702.48 74.7109 1700.58 73.0078C1698.67 71.2891 1697.23 69.2734 1696.27 66.9609C1695.31 64.6328 1694.84 62.1328 1694.84 59.4609ZM1741.12 41.3672H1748.55V71.4844H1769.86V78H1741.12V41.3672ZM1777.08 41.3672H1808.27V47.8828H1784.51V55.1953H1805.55V61.3125H1784.51V71.5078H1808.77V78H1777.08V41.3672ZM1829.51 41.3672H1837.38L1855.1 78H1847.3L1844.37 71.8359H1822.97L1820.13 78H1812.3L1829.51 41.3672ZM1841.44 65.7188L1833.52 49.0781L1825.8 65.7188H1841.44ZM1860.75 41.3672H1868.18L1891.01 53.3203V41.3672H1898.44V78H1891.01V61.1953L1868.18 49.3125V78H1860.75V41.3672Z" fill="#4E6DE9"/>
<path d="M1014.18 41.3672H1021.61V50.9297H1044.39V41.3672H1051.84V78H1044.39V57.2812H1021.61V78H1014.18V41.3672ZM1060.09 59.5781C1060.09 56.8125 1060.6 54.2812 1061.62 51.9844C1062.63 49.6875 1064.05 47.7188 1065.88 46.0781C1067.73 44.4219 1069.93 43.1406 1072.49 42.2344C1075.07 41.3281 1077.92 40.875 1081.05 40.875C1084.16 40.875 1087 41.3281 1089.58 42.2344C1092.16 43.1406 1094.36 44.4219 1096.19 46.0781C1098.03 47.7188 1099.46 49.6875 1100.48 51.9844C1101.49 54.2812 1102 56.8125 1102 59.5781C1102 62.3594 1101.49 64.9141 1100.48 67.2422C1099.46 69.5547 1098.03 71.5469 1096.19 73.2188C1094.36 74.8906 1092.16 76.1953 1089.58 77.1328C1087 78.0547 1084.16 78.5156 1081.05 78.5156C1077.92 78.5156 1075.07 78.0547 1072.49 77.1328C1069.93 76.1953 1067.73 74.8906 1065.88 73.2188C1064.05 71.5469 1062.63 69.5547 1061.62 67.2422C1060.6 64.9141 1060.09 62.3594 1060.09 59.5781ZM1067.52 59.5781C1067.52 61.4688 1067.86 63.1719 1068.53 64.6875C1069.22 66.2031 1070.16 67.5 1071.37 68.5781C1072.59 69.6406 1074.02 70.4609 1075.66 71.0391C1077.31 71.6172 1079.11 71.9062 1081.05 71.9062C1082.98 71.9062 1084.77 71.6172 1086.41 71.0391C1088.07 70.4609 1089.5 69.6406 1090.7 68.5781C1091.91 67.5 1092.85 66.2031 1093.54 64.6875C1094.23 63.1719 1094.57 61.4688 1094.57 59.5781C1094.57 57.6875 1094.23 55.9922 1093.54 54.4922C1092.85 52.9922 1091.91 51.7266 1090.7 50.6953C1089.5 49.6484 1088.07 48.8516 1086.41 48.3047C1084.77 47.7578 1082.98 47.4844 1081.05 47.4844C1079.11 47.4844 1077.31 47.7578 1075.66 48.3047C1074.02 48.8516 1072.59 49.6484 1071.37 50.6953C1070.16 51.7266 1069.22 52.9922 1068.53 54.4922C1067.86 55.9922 1067.52 57.6875 1067.52 59.5781ZM1110.27 41.3672H1117.7L1131.02 54.7266L1144.33 41.3672H1151.76V78H1144.33V51.6562L1131.02 64.4766L1117.7 51.6562V78H1110.27V41.3672ZM1162.19 41.3672H1193.38V47.8828H1169.62V55.1953H1190.66V61.3125H1169.62V71.5078H1193.88V78H1162.19V41.3672ZM1215.84 59.4609C1215.84 56.8516 1216.33 54.4219 1217.31 52.1719C1218.3 49.9062 1219.72 47.9453 1221.58 46.2891C1223.45 44.6172 1225.73 43.3047 1228.42 42.3516C1231.12 41.3984 1234.18 40.9219 1237.59 40.9219C1240.57 40.9219 1243.3 41.2266 1245.79 41.8359C1248.29 42.4297 1250.61 43.3438 1252.75 44.5781L1249.33 50.2031C1248.69 49.7812 1247.95 49.4062 1247.1 49.0781C1246.27 48.75 1245.38 48.4766 1244.43 48.2578C1243.49 48.0234 1242.52 47.8438 1241.5 47.7188C1240.5 47.5938 1239.51 47.5312 1238.52 47.5312C1236.15 47.5312 1234.03 47.8281 1232.17 48.4219C1230.31 49 1228.74 49.8203 1227.46 50.8828C1226.2 51.9297 1225.23 53.1875 1224.55 54.6562C1223.9 56.1094 1223.57 57.7109 1223.57 59.4609C1223.57 61.2734 1223.91 62.9375 1224.6 64.4531C1225.29 65.9688 1226.28 67.2812 1227.58 68.3906C1228.89 69.4844 1230.48 70.3438 1232.36 70.9688C1234.25 71.5781 1236.38 71.8828 1238.76 71.8828C1239.84 71.8828 1240.91 71.8047 1241.97 71.6484C1243.03 71.4922 1244.05 71.2812 1245.04 71.0156C1246.04 70.7344 1247 70.4062 1247.92 70.0312C1248.84 69.6406 1249.7 69.2188 1250.5 68.7656L1253.92 74.3906C1251.92 75.6719 1249.61 76.6797 1246.98 77.4141C1244.36 78.1328 1241.57 78.4922 1238.62 78.4922C1234.85 78.4922 1231.55 78.0078 1228.7 77.0391C1225.86 76.0547 1223.48 74.7109 1221.58 73.0078C1219.67 71.2891 1218.23 69.2734 1217.27 66.9609C1216.31 64.6328 1215.84 62.1328 1215.84 59.4609ZM1262.12 41.3672H1269.55V71.4844H1290.86V78H1262.12V41.3672ZM1298.08 41.3672H1329.27V47.8828H1305.51V55.1953H1326.55V61.3125H1305.51V71.5078H1329.77V78H1298.08V41.3672ZM1350.51 41.3672H1358.38L1376.1 78H1368.3L1365.37 71.8359H1343.97L1341.13 78H1333.3L1350.51 41.3672ZM1362.44 65.7188L1354.52 49.0781L1346.8 65.7188H1362.44ZM1381.75 41.3672H1389.18L1412.01 53.3203V41.3672H1419.44V78H1412.01V61.1953L1389.18 49.3125V78H1381.75V41.3672Z" fill="black"/>
<path d="M532.18 41.3672H539.609V50.9297H562.391V41.3672H569.844V78H562.391V57.2812H539.609V78H532.18V41.3672ZM578.094 59.5781C578.094 56.8125 578.602 54.2812 579.617 51.9844C580.633 49.6875 582.055 47.7188 583.883 46.0781C585.727 44.4219 587.93 43.1406 590.492 42.2344C593.07 41.3281 595.922 40.875 599.047 40.875C602.156 40.875 605 41.3281 607.578 42.2344C610.156 43.1406 612.359 44.4219 614.188 46.0781C616.031 47.7188 617.461 49.6875 618.477 51.9844C619.492 54.2812 620 56.8125 620 59.5781C620 62.3594 619.492 64.9141 618.477 67.2422C617.461 69.5547 616.031 71.5469 614.188 73.2188C612.359 74.8906 610.156 76.1953 607.578 77.1328C605 78.0547 602.156 78.5156 599.047 78.5156C595.922 78.5156 593.07 78.0547 590.492 77.1328C587.93 76.1953 585.727 74.8906 583.883 73.2188C582.055 71.5469 580.633 69.5547 579.617 67.2422C578.602 64.9141 578.094 62.3594 578.094 59.5781ZM585.523 59.5781C585.523 61.4688 585.859 63.1719 586.531 64.6875C587.219 66.2031 588.164 67.5 589.367 68.5781C590.586 69.6406 592.016 70.4609 593.656 71.0391C595.312 71.6172 597.109 71.9062 599.047 71.9062C600.984 71.9062 602.773 71.6172 604.414 71.0391C606.07 70.4609 607.5 69.6406 608.703 68.5781C609.906 67.5 610.852 66.2031 611.539 64.6875C612.227 63.1719 612.57 61.4688 612.57 59.5781C612.57 57.6875 612.227 55.9922 611.539 54.4922C610.852 52.9922 609.906 51.7266 608.703 50.6953C607.5 49.6484 606.07 48.8516 604.414 48.3047C602.773 47.7578 600.984 47.4844 599.047 47.4844C597.109 47.4844 595.312 47.7578 593.656 48.3047C592.016 48.8516 590.586 49.6484 589.367 50.6953C588.164 51.7266 587.219 52.9922 586.531 54.4922C585.859 55.9922 585.523 57.6875 585.523 59.5781ZM628.273 41.3672H635.703L649.016 54.7266L662.328 41.3672H669.758V78H662.328V51.6562L649.016 64.4766L635.703 51.6562V78H628.273V41.3672ZM680.188 41.3672H711.383V47.8828H687.617V55.1953H708.664V61.3125H687.617V71.5078H711.875V78H680.188V41.3672ZM733.836 59.4609C733.836 56.8516 734.328 54.4219 735.312 52.1719C736.297 49.9062 737.719 47.9453 739.578 46.2891C741.453 44.6172 743.734 43.3047 746.422 42.3516C749.125 41.3984 752.18 40.9219 755.586 40.9219C758.57 40.9219 761.305 41.2266 763.789 41.8359C766.289 42.4297 768.609 43.3438 770.75 44.5781L767.328 50.2031C766.688 49.7812 765.945 49.4062 765.102 49.0781C764.273 48.75 763.383 48.4766 762.43 48.2578C761.492 48.0234 760.516 47.8438 759.5 47.7188C758.5 47.5938 757.508 47.5312 756.523 47.5312C754.148 47.5312 752.031 47.8281 750.172 48.4219C748.312 49 746.742 49.8203 745.461 50.8828C744.195 51.9297 743.227 53.1875 742.555 54.6562C741.898 56.1094 741.57 57.7109 741.57 59.4609C741.57 61.2734 741.914 62.9375 742.602 64.4531C743.289 65.9688 744.281 67.2812 745.578 68.3906C746.891 69.4844 748.484 70.3438 750.359 70.9688C752.25 71.5781 754.383 71.8828 756.758 71.8828C757.836 71.8828 758.906 71.8047 759.969 71.6484C761.031 71.4922 762.055 71.2812 763.039 71.0156C764.039 70.7344 765 70.4062 765.922 70.0312C766.844 69.6406 767.703 69.2188 768.5 68.7656L771.922 74.3906C769.922 75.6719 767.609 76.6797 764.984 77.4141C762.359 78.1328 759.57 78.4922 756.617 78.4922C752.852 78.4922 749.547 78.0078 746.703 77.0391C743.859 76.0547 741.484 74.7109 739.578 73.0078C737.672 71.2891 736.234 69.2734 735.266 66.9609C734.312 64.6328 733.836 62.1328 733.836 59.4609ZM780.125 41.3672H787.555V71.4844H808.859V78H780.125V41.3672ZM816.078 41.3672H847.273V47.8828H823.508V55.1953H844.555V61.3125H823.508V71.5078H847.766V78H816.078V41.3672ZM868.508 41.3672H876.383L894.102 78H886.297L883.367 71.8359H861.969L859.133 78H851.305L868.508 41.3672ZM880.438 65.7188L872.516 49.0781L864.805 65.7188H880.438ZM899.75 41.3672H907.18L930.008 53.3203V41.3672H937.438V78H930.008V61.1953L907.18 49.3125V78H899.75V41.3672Z" fill="#4E6DE9"/>
<g clip-path="url(#clip1_38_2)">
<path d="M507.958 80.5292C507.958 81.0613 507.593 81.4954 507.141 81.4954H482.86C482.408 81.4954 482.043 81.0613 482.043 80.5292C482.043 79.9971 482.408 79.563 482.86 79.563H507.141C507.593 79.563 507.958 79.9935 507.958 80.5292ZM516.956 43.6022L507.446 76.3906C507.334 76.7814 507.024 77.0437 506.673 77.0437H483.326C482.976 77.0437 482.666 76.7814 482.553 76.3906L473.044 43.6022C472.968 43.3371 472.992 43.0476 473.11 42.8056C473.228 42.5641 473.428 42.3945 473.66 42.3397C478.953 41.1008 484.626 42.3086 489.054 45.5725L494.335 36.8832C494.642 36.3783 495.355 36.3783 495.663 36.8832L500.944 45.5725C505.372 42.3115 511.048 41.1037 516.339 42.3397C516.57 42.3945 516.771 42.5641 516.889 42.8056C517.007 43.0497 517.033 43.3392 516.956 43.6022ZM515.098 44.0442C510.224 43.1828 505.114 44.5273 501.199 47.6835C500.832 47.9766 500.337 47.875 500.075 47.4495L495 39.1058L489.925 47.4513C489.665 47.8767 489.167 47.9787 488.8 47.6853C484.886 44.5301 479.778 43.1846 474.902 44.047L483.91 75.1131H506.086L515.098 44.0442ZM480.272 47.4727C479.988 47.4198 479.711 47.554 479.53 47.8105C479.347 48.0671 479.291 48.4171 479.38 48.7345L483.379 62.9415C483.493 63.3473 483.812 63.6021 484.155 63.6021C484.24 63.6021 484.327 63.5871 484.413 63.5549C484.842 63.3871 485.074 62.8399 484.932 62.3339L481.372 49.6839C483.134 50.1688 484.788 51.0151 486.217 52.1681C486.588 52.468 487.097 52.3556 487.354 51.9151C487.609 51.4746 487.512 50.8734 487.14 50.5724C485.148 48.9628 482.772 47.89 480.272 47.4727Z" fill="black"/>
</g>
<path d="M1471.96 82.5292C1471.96 83.0613 1471.59 83.4954 1471.14 83.4954H1446.86C1446.41 83.4954 1446.04 83.0613 1446.04 82.5292C1446.04 81.9971 1446.41 81.563 1446.86 81.563H1471.14C1471.59 81.563 1471.96 81.9935 1471.96 82.5292ZM1480.96 45.6022L1471.45 78.3906C1471.33 78.7814 1471.02 79.0437 1470.67 79.0437H1447.33C1446.98 79.0437 1446.67 78.7814 1446.55 78.3906L1437.04 45.6022C1436.97 45.3371 1436.99 45.0476 1437.11 44.8056C1437.23 44.5641 1437.43 44.3945 1437.66 44.3397C1442.95 43.1008 1448.63 44.3086 1453.05 47.5725L1458.33 38.8832C1458.64 38.3783 1459.36 38.3783 1459.66 38.8832L1464.94 47.5725C1469.37 44.3115 1475.05 43.1037 1480.34 44.3397C1480.57 44.3945 1480.77 44.5641 1480.89 44.8056C1481.01 45.0497 1481.03 45.3392 1480.96 45.6022ZM1479.1 46.0442C1474.22 45.1828 1469.11 46.5273 1465.2 49.6835C1464.83 49.9766 1464.34 49.875 1464.08 49.4495L1459 41.1058L1453.93 49.4513C1453.66 49.8767 1453.17 49.9787 1452.8 49.6853C1448.89 46.5301 1443.78 45.1846 1438.9 46.047L1447.91 77.1131H1470.09L1479.1 46.0442ZM1444.27 49.4727C1443.99 49.4198 1443.71 49.554 1443.53 49.8105C1443.35 50.0671 1443.29 50.4171 1443.38 50.7345L1447.38 64.9415C1447.49 65.3473 1447.81 65.6021 1448.16 65.6021C1448.24 65.6021 1448.33 65.5871 1448.41 65.5549C1448.84 65.3871 1449.07 64.8399 1448.93 64.3339L1445.37 51.6839C1447.13 52.1688 1448.79 53.0151 1450.22 54.1681C1450.59 54.468 1451.1 54.3556 1451.35 53.9151C1451.61 53.4746 1451.51 52.8734 1451.14 52.5724C1449.15 50.9628 1446.77 49.89 1444.27 49.4727Z" fill="black"/>
<path d="M993.958 79.5292C993.958 80.0613 993.593 80.4954 993.141 80.4954H968.86C968.408 80.4954 968.042 80.0613 968.042 79.5292C968.042 78.9971 968.408 78.563 968.86 78.563H993.141C993.593 78.563 993.958 78.9935 993.958 79.5292ZM1002.96 42.6022L993.446 75.3907C993.334 75.7814 993.024 76.0437 992.673 76.0437H969.326C968.976 76.0437 968.666 75.7814 968.553 75.3907L959.044 42.6022C958.968 42.3371 958.992 42.0476 959.11 41.8056C959.228 41.5641 959.428 41.3945 959.66 41.3397C964.952 40.1008 970.626 41.3086 975.053 44.5725L980.335 35.8832C980.642 35.3783 981.355 35.3783 981.663 35.8832L986.944 44.5725C991.371 41.3115 997.048 40.1037 1002.34 41.3397C1002.57 41.3945 1002.77 41.5641 1002.89 41.8056C1003.01 42.0497 1003.03 42.3392 1002.96 42.6022ZM1001.1 43.0442C996.224 42.1828 991.114 43.5273 987.199 46.6835C986.832 46.9766 986.337 46.875 986.075 46.4495L981 38.1058L975.925 46.4513C975.665 46.8767 975.167 46.9787 974.8 46.6853C970.886 43.5301 965.778 42.1846 960.902 43.047L969.909 74.1131H992.085L1001.1 43.0442ZM966.272 46.4727C965.988 46.4198 965.711 46.554 965.53 46.8105C965.347 47.0671 965.291 47.4171 965.38 47.7345L969.379 61.9415C969.493 62.3474 969.812 62.6021 970.155 62.6021C970.24 62.6021 970.327 62.5871 970.413 62.5549C970.842 62.3871 971.074 61.8399 970.931 61.3339L967.372 48.6839C969.133 49.1688 970.788 50.0151 972.217 51.1681C972.588 51.468 973.097 51.3556 973.354 50.9151C973.609 50.4746 973.512 49.8734 973.139 49.5724C971.148 47.9628 968.772 46.89 966.272 46.4727Z" fill="black"/>
</g>
<defs>
<clipPath id="clip0_38_2">
<rect width="1920" height="120" fill="white"/>
</clipPath>
<clipPath id="clip1_38_2">
<rect width="44" height="52" fill="white" transform="translate(473 33)"/>
</clipPath>
</defs>
</svg>
